<?xml version="1.0" encoding="utf-8"?>
<!-- Generator: Adobe Illustrator 16.0.0, SVG Export Plug-In . SVG Version: 6.00 Build 0)  -->
<!DOCTYPE svg PUBLIC "-//W3C//DTD SVG 1.1//EN" "http://www.w3.org/Graphics/SVG/1.1/DTD/svg11.dtd">
<svg version="1.1" xmlns="http://www.w3.org/2000/svg" xmlns:xlink="http://www.w3.org/1999/xlink" x="0px" y="0px"
	 width="179.079px" height="90.094px" viewBox="0 0 179.079 90.094" enable-background="new 0 0 179.079 90.094"
	 xml:space="preserve">
<g id="Слой_4">
	<path fill="#C0FFFD" d="M53.706,11.351C34.844,13.543,13.79,20.699,9.061,40.312C2.687,66.755,33.081,82.7,53.831,86.828
		c32.705,6.506,98.21,6.849,112.148-33.36C180.964,10.247,92.854-16.407,53.706,11.351z"/>
</g>
<g id="Слой_2">
	<path fill="#FFFFFF" d="M3.232,53v-3.25L2.832,43l-0.25-3.4c-0.1-1.75-0.15-2.75-0.2-3c0-0.15,0-0.45-0.05-1
		c-0.05-0.55-0.15-1.15-0.2-1.8c-0.15-1.3-0.2-3.2,0-4.65c0.15-1,0.5-2.05,1.5-2.5c2.601-1.05,5.101,0.9,7.151,3.55
		c3.4,4.35,4.65,8.4,5.3,12.45c0.75,4.15,0.5,8.751-0.85,12.551c-1.35,3.851-4.5,7.301-8.951,9.151c-0.65,0.25-1.15,0.1-1.6-0.351
		c-0.4,0.15-1.15,0.101-1.6-0.55c-0.25-0.3-0.35-0.65-0.3-1.05c0.25-1.801,0.4-4.201,0.45-6.001C3.282,55.55,3.282,54.4,3.232,53z
		 M5.482,39.549l0.25,3.75c0.05,1.051,0.35,5.65,0.35,7.4c0,0.9,0,2.05,0.05,3.5c0.05,2.9-0.1,5.051-0.3,7.2
		c4.2-2,6.801-5.75,7.5-10.101c0.7-4.35,0.1-9.1-1.55-13.7c-0.65-1.8-1.75-3.65-3.3-5.601c-0.85-1.1-1.6-1.9-2.3-2.35
		c-0.45-0.25-0.8-0.4-1.1-0.4c-0.05,0.1-0.05,0.2-0.1,0.35c-0.15,1.15-0.05,2.85,0.05,4.1l0.15,1.7l0.1,1
		C5.282,36.499,5.332,37.549,5.482,39.549z"/>
	<path fill="#FFFFFF" d="M32.032,40.299l0.2,0.4c0.05,0.149,0.05,0.299,0.1,0.449c0.05,0.25,0.05,0.551,0.1,0.95l0.15,2.95v1.7
		c0.2,1.95,0.2,1.95,0.25,4.8c0,2.851,0.05,5.101,0.3,6.751c0.1,0.75,0.2,1.3,0.3,1.6h0.05c1,0.551,1.25,0.601,1.4,1.4
		s-0.4,1.55-1.2,1.7c-0.4,0.05-0.75,0-1.1-0.25c-0.05-0.05-0.05-0.05-0.1-0.05l-0.15-0.101c-0.05-0.05-0.15-0.1-0.25-0.149
		c-1-0.601-1.3-1.25-1.55-2.101l-0.3,0.601c-1.35,2.399-3.55,3.3-5.95,1.5c-2.8-2-3.75-9.101-2.9-15.102
		c0.5-3.399,1.45-5.95,2.85-7.6c1.8-2.15,4.15-2.7,7.101-1.3C31.982,38.799,32.282,39.649,32.032,40.299z M29.682,46.95l-0.1-0.7
		c-0.25-1.5-0.35-2.65-0.4-3.4c0-0.05,0-0.2-0.05-0.45c-0.05-0.65-0.15-1.15,0.05-1.699c-1.05-0.301-2,0-2.75,0.899
		c-2.05,2.55-3,9.001-2.15,14.051c0.35,2.45,0.95,3.95,1.7,4.5c0.8,0.601,1.1,0.45,1.7-0.55
		C29.132,56.95,29.632,51.299,29.682,46.95z"/>
	<path fill="#FFFFFF" d="M47.582,37.599v-0.8c0-0.45-0.05-1.4-0.1-2.75c-0.15-2.75-0.1-4.6,0.1-6.55c0.15-0.8,0.85-1.4,1.65-1.3
		c0.75,0.1,1.3,0.85,1.25,1.6c-0.2,1.8-0.25,3.45-0.1,6.05c0.05,1.3,0.1,2.3,0.1,2.95c0.15,9.75,0.3,18.051,0.55,24.801
		c0,0.801-0.6,1.5-1.4,1.5c-0.8,0-1.45-0.55-1.5-1.35c-1.15,1.4-2.85,1.9-5,0.9c-1.55-0.7-2.6-1.65-3.2-2.851
		c-0.45-1-0.75-3.2-0.9-5.801c-0.25-6,0.4-12.8,2.6-15.75C43.281,36.099,45.532,36.149,47.582,37.599z M45.731,39.849
		c-0.8-0.55-1.2-0.55-1.8,0.2c-1.55,2.05-2.25,8.2-2,13.801c0.05,1.25,0.15,2.3,0.25,3.15c0.25,1.6,0.35,2.2,2.15,3.05
		c0.45,0.2,0.85,0.25,1.1,0.2c0.15-0.05,0.35-0.15,0.5-0.4c0.4-0.55,0.7-1.55,0.95-3.05c0.95-5.2,0.7-13.401-1.1-16.851
		C45.782,39.899,45.782,39.899,45.731,39.849z"/>
	<path fill="#FFFFFF" d="M63.731,37.599v-0.8c0-0.45-0.05-1.4-0.1-2.75c-0.15-2.75-0.1-4.6,0.1-6.55c0.15-0.8,0.85-1.4,1.65-1.3
		c0.75,0.1,1.3,0.85,1.25,1.6c-0.2,1.8-0.25,3.45-0.1,6.05c0.05,1.3,0.1,2.3,0.1,2.95c0.15,9.75,0.3,18.051,0.55,24.801
		c0,0.801-0.6,1.5-1.4,1.5c-0.8,0-1.45-0.55-1.5-1.35c-1.15,1.4-2.85,1.9-5,0.9c-1.55-0.7-2.6-1.65-3.2-2.851
		c-0.45-1-0.75-3.2-0.9-5.801c-0.25-6,0.4-12.8,2.6-15.75C59.431,36.099,61.682,36.149,63.731,37.599z M61.881,39.849
		c-0.8-0.55-1.2-0.55-1.8,0.2c-1.55,2.05-2.25,8.2-2,13.801c0.05,1.25,0.15,2.3,0.25,3.15c0.25,1.6,0.35,2.2,2.15,3.05
		c0.45,0.2,0.85,0.25,1.1,0.2c0.15-0.05,0.35-0.15,0.5-0.4c0.4-0.55,0.7-1.55,0.95-3.05c0.95-5.2,0.7-13.401-1.1-16.851
		C61.932,39.899,61.932,39.899,61.881,39.849z"/>
	<path fill="#FFFFFF" d="M78.082,61.85l-0.05-0.2c-0.35-0.949-0.6-2.1-1.15-4.7c-1.15-5.15-2.8-11.35-4.85-18.5
		c-0.2-0.75,0.2-1.6,1-1.8c0.75-0.2,1.6,0.2,1.8,1C76.582,43.7,77.981,49,79.032,53.5l0.45-3.7c0.15-1.05,0.2-2.649,0.25-4.699
		c0.05-2.301,0.1-3.951,0.25-5.001l0.1-0.95c0.05-0.4,0.15-0.7,0.3-0.95c0.8-1.15,2.3-1.05,2.851,0.1c0.15,0.25,0.25,0.6,0.3,1.25
		c0.05,0.949,0.1,2.8,0.05,4.801c-0.05,2.199-0.35,5.8-0.95,10.75c-0.05,0.1-0.05,0.399-0.1,0.85c-0.1,1-0.25,2.2-0.4,3.2
		c-0.15,0.95-0.3,1.75-0.45,2.351c-0.2,0.8-0.45,1.3-0.85,1.65c-0.6,3.7-1.4,6.95-2.45,9.8c-0.25,0.751-1.1,1.101-1.85,0.851
		s-1.1-1.101-0.85-1.851C76.731,69.101,77.531,65.701,78.082,61.85z"/>
	<path fill="#FFFFFF" d="M92.781,33.399l0.05-0.15c-0.05,0.05-0.15,0.1-0.25,0.15c-2.25,1.2-3.55-0.7-3.3-3.45
		c0.2-2.4,1.6-4,4.25-2.65c1.399,0.75,2.2,1.9,2.399,3.25c0.15,1.35,0,2.55-0.399,3.75c-0.75,2.4-2.4,4.8-4.001,5.8
		c-0.649,0.399-1.55,0.2-1.95-0.5c-0.45-0.7-0.3-1.55,0.45-2C90.881,37.049,92.181,35.249,92.781,33.399z M92.181,29.999l0.101-0.1
		H92.23C92.23,29.949,92.23,29.949,92.181,29.999z"/>
	<path fill="#FFFFFF" d="M101.279,55.8v-1.15c0-0.8,0.601-1.5,1.4-1.5s1.5,0.6,1.5,1.4v1.35c0,1.05,0.05,1.5,0.15,2.3
		c0.05,0.4,0.1,0.751,0.2,1.051c0.55,1.85,2.35,2.1,3.2,0.35c1-2,0.649-6.75-0.5-7.9c-0.301-0.3-0.95-0.65-1.95-1
		c-2.851-1-4.351-2.601-4.15-7.551c0.149-2.55,0.2-4.45,1.55-5.85c1.45-1.4,3.5-1.55,4.9-0.6c1.351,0.75,2.351,2.15,2.601,3.7
		c0.05,0.45,0.05,1.2,0,2.25c-0.05,0.25-0.05,0.45-0.05,0.7c-0.051,0.25-0.051,0.5-0.051,0.7c-0.05,0.25-0.05,0.4-0.05,0.45
		c-0.05,0.8-0.75,1.399-1.55,1.351c-0.801-0.051-1.4-0.75-1.351-1.551c0-0.05,0-0.2,0.05-0.45c0-0.2,0-0.45,0.051-0.7
		c0-0.25,0-0.449,0.05-0.65c0.05-1.75,0.2-2.549-1.15-3.299c-1-0.6-1.7,0.15-1.95,1.7c-0.149,0.75-0.5,4.75,0.45,6.101
		c0.25,0.35,0.75,0.7,1.601,1c2.95,1.05,4.55,2.2,4.9,6.65c0.199,2.65-0.051,4.75-0.801,6.25c-0.95,1.95-2.75,3.001-4.6,2.751
		c-1.851-0.2-3.351-1.551-4.001-3.501c-0.25-0.85-0.399-2.1-0.399-2.899C101.279,56.85,101.279,56.35,101.279,55.8z"/>
	<path fill="#FFFFFF" d="M143.729,27.198c0.149,1.5,0.199,3.25,0.199,5.25c-0.05,0.8-0.1,3.8-0.1,5.05c0,2.2,0,4.75-0.05,7.701
		c1.65-1.5,2.6-3.701,2.9-6.651c0.05-0.8,0.8-1.35,1.6-1.3c0.8,0.05,1.351,0.8,1.3,1.6c-0.3,2.95-1.149,5.3-2.6,7.15
		c3.35,4.4,4.25,9.051,4.25,15.4c0,0.801-0.65,1.45-1.45,1.45s-1.45-0.649-1.45-1.45c0-5.75-0.8-9.7-3.45-13.351
		c-0.35,0.25-0.75,0.5-1.149,0.75c-0.101,6.751-0.15,11.501-0.15,14.251c0,0.801-0.65,1.45-1.45,1.45s-1.45-0.649-1.45-1.45
		c0-2.85,0.05-7.101,0.15-12.801c0.05-5.649,0.1-9.9,0.1-12.75c0-1.25,0.05-4.25,0.101-5.101c0-1.95-0.051-3.55-0.2-4.9
		c-0.05-0.8,0.5-1.55,1.3-1.601C142.929,25.848,143.679,26.398,143.729,27.198z"/>
	<path fill="#FFFFFF" d="M159.829,34.149l-0.5-0.15c-1.351,0.15-2.25-0.85-2.2-2.1c-0.05-0.25,0-0.5,0.15-0.75
		c0.05-0.25,0.149-0.45,0.3-0.65c0.95-1.75,2.45-2.3,3.6-1.9c1.2,0.4,1.9,1.65,1.7,3.05
		C162.679,32.999,161.629,34.399,159.829,34.149z M161.229,38.149c0.149,5.65,0.199,13.751,0.199,24.302
		c0,0.8-0.649,1.45-1.449,1.45c-0.801,0-1.45-0.65-1.45-1.45c0-10.551-0.051-18.651-0.2-24.202c0-0.8,0.6-1.5,1.4-1.5
		C160.529,36.749,161.229,37.349,161.229,38.149z"/>
	<path fill="#FFFFFF" d="M175.629,37.599v-0.8c0-0.45-0.05-1.4-0.1-2.75c-0.15-2.75-0.101-4.6,0.1-6.55c0.15-0.8,0.85-1.4,1.65-1.3
		c0.75,0.1,1.3,0.85,1.25,1.6c-0.2,1.8-0.25,3.45-0.101,6.05c0.051,1.3,0.101,2.3,0.101,2.95c0.149,9.75,0.3,18.051,0.55,24.801
		c0,0.801-0.6,1.5-1.4,1.5c-0.8,0-1.45-0.55-1.5-1.35c-1.149,1.4-2.85,1.9-5,0.9c-1.55-0.7-2.601-1.65-3.2-2.851
		c-0.45-1-0.75-3.2-0.9-5.801c-0.25-6,0.4-12.8,2.601-15.75C171.329,36.099,173.579,36.149,175.629,37.599z M173.779,39.849
		c-0.801-0.55-1.2-0.55-1.801,0.2c-1.55,2.05-2.25,8.2-2,13.801c0.05,1.25,0.15,2.3,0.25,3.15c0.25,1.6,0.351,2.2,2.15,3.05
		c0.45,0.2,0.85,0.25,1.1,0.2c0.15-0.05,0.351-0.15,0.5-0.4c0.4-0.55,0.7-1.55,0.95-3.05c0.95-5.2,0.7-13.401-1.1-16.851
		C173.829,39.899,173.829,39.899,173.779,39.849z"/>
</g>
<g id="Слой_3">
	<path fill="#222222" d="M1.232,51v-3.25L0.832,41l-0.25-3.4c-0.1-1.75-0.15-2.75-0.2-3c0-0.15,0-0.45-0.05-1
		c-0.05-0.55-0.15-1.15-0.2-1.8c-0.15-1.3-0.2-3.2,0-4.65c0.15-1,0.5-2.05,1.5-2.5c2.601-1.05,5.101,0.9,7.151,3.55
		c3.4,4.35,4.65,8.4,5.3,12.45c0.75,4.15,0.5,8.751-0.85,12.551c-1.35,3.851-4.5,7.301-8.951,9.151c-0.65,0.25-1.15,0.1-1.6-0.351
		c-0.4,0.15-1.15,0.101-1.6-0.55c-0.25-0.3-0.35-0.65-0.3-1.05c0.25-1.801,0.4-4.201,0.45-6.001C1.282,53.55,1.282,52.4,1.232,51z
		 M3.482,37.549l0.25,3.75c0.05,1.051,0.35,5.65,0.35,7.4c0,0.9,0,2.05,0.05,3.5c0.05,2.9-0.1,5.051-0.3,7.2
		c4.2-2,6.801-5.75,7.5-10.101c0.7-4.35,0.1-9.1-1.55-13.7c-0.65-1.8-1.75-3.65-3.3-5.601c-0.85-1.1-1.6-1.9-2.3-2.35
		c-0.45-0.25-0.8-0.4-1.1-0.4c-0.05,0.1-0.05,0.2-0.1,0.35c-0.15,1.15-0.05,2.85,0.05,4.1l0.15,1.7l0.1,1
		C3.282,34.499,3.332,35.549,3.482,37.549z"/>
	<path fill="#222222" d="M30.032,38.299l0.2,0.4c0.05,0.15,0.05,0.3,0.1,0.45c0.05,0.25,0.05,0.55,0.1,0.95l0.15,2.95v1.7
		c0.2,1.95,0.2,1.95,0.25,4.8c0,2.851,0.05,5.101,0.3,6.751c0.1,0.75,0.2,1.3,0.3,1.6h0.05c1,0.551,1.25,0.601,1.4,1.4
		s-0.4,1.55-1.2,1.7c-0.4,0.05-0.75,0-1.1-0.25c-0.05-0.05-0.05-0.05-0.1-0.05l-0.15-0.101c-0.05-0.05-0.15-0.1-0.25-0.149
		c-1-0.601-1.3-1.25-1.55-2.101l-0.3,0.601c-1.35,2.399-3.55,3.3-5.95,1.5c-2.8-2-3.75-9.101-2.9-15.101
		c0.5-3.4,1.45-5.951,2.85-7.601c1.8-2.15,4.15-2.7,7.101-1.3C29.982,36.799,30.282,37.649,30.032,38.299z M27.682,44.95l-0.1-0.7
		c-0.25-1.5-0.35-2.65-0.4-3.4c0-0.05,0-0.2-0.05-0.45c-0.05-0.65-0.15-1.15,0.05-1.7c-1.05-0.3-2,0-2.75,0.9
		c-2.05,2.55-3,9.001-2.15,14.051c0.35,2.45,0.95,3.95,1.7,4.5c0.8,0.601,1.1,0.45,1.7-0.55
		C27.132,54.95,27.632,49.299,27.682,44.95z"/>
	<path fill="#222222" d="M45.582,35.599v-0.8c0-0.45-0.05-1.4-0.1-2.75c-0.15-2.75-0.1-4.6,0.1-6.55c0.15-0.8,0.85-1.4,1.65-1.3
		c0.75,0.1,1.3,0.85,1.25,1.6c-0.2,1.8-0.25,3.45-0.1,6.05c0.05,1.3,0.1,2.3,0.1,2.95c0.15,9.75,0.3,18.051,0.55,24.801
		c0,0.801-0.6,1.5-1.4,1.5c-0.8,0-1.45-0.55-1.5-1.35c-1.15,1.4-2.85,1.9-5,0.9c-1.55-0.7-2.6-1.65-3.2-2.851
		c-0.45-1-0.75-3.2-0.9-5.801c-0.25-6,0.4-12.8,2.6-15.75C41.281,34.099,43.532,34.149,45.582,35.599z M43.731,37.849
		c-0.8-0.55-1.2-0.55-1.8,0.2c-1.55,2.05-2.25,8.2-2,13.801c0.05,1.25,0.15,2.3,0.25,3.15c0.25,1.6,0.35,2.2,2.15,3.05
		c0.45,0.2,0.85,0.25,1.1,0.2c0.15-0.05,0.35-0.15,0.5-0.4c0.4-0.55,0.7-1.55,0.95-3.05c0.95-5.2,0.7-13.401-1.1-16.851
		C43.782,37.899,43.782,37.899,43.731,37.849z"/>
	<path fill="#222222" d="M61.731,35.599v-0.8c0-0.45-0.05-1.4-0.1-2.75c-0.15-2.75-0.1-4.6,0.1-6.55c0.15-0.8,0.85-1.4,1.65-1.3
		c0.75,0.1,1.3,0.85,1.25,1.6c-0.2,1.8-0.25,3.45-0.1,6.05c0.05,1.3,0.1,2.3,0.1,2.95c0.15,9.75,0.3,18.051,0.55,24.801
		c0,0.801-0.6,1.5-1.4,1.5c-0.8,0-1.45-0.55-1.5-1.35c-1.15,1.4-2.85,1.9-5,0.9c-1.55-0.7-2.6-1.65-3.2-2.851
		c-0.45-1-0.75-3.2-0.9-5.801c-0.25-6,0.4-12.8,2.6-15.75C57.431,34.099,59.682,34.149,61.731,35.599z M59.881,37.849
		c-0.8-0.55-1.2-0.55-1.8,0.2c-1.55,2.05-2.25,8.2-2,13.801c0.05,1.25,0.15,2.3,0.25,3.15c0.25,1.6,0.35,2.2,2.15,3.05
		c0.45,0.2,0.85,0.25,1.1,0.2c0.15-0.05,0.35-0.15,0.5-0.4c0.4-0.55,0.7-1.55,0.95-3.05c0.95-5.2,0.7-13.401-1.1-16.851
		C59.932,37.899,59.932,37.899,59.881,37.849z"/>
	<path fill="#222222" d="M76.082,59.85l-0.05-0.2c-0.35-0.949-0.6-2.1-1.15-4.7c-1.15-5.15-2.8-11.35-4.85-18.5
		c-0.2-0.75,0.2-1.6,1-1.8c0.75-0.2,1.6,0.2,1.8,1C74.582,41.7,75.981,47,77.032,51.5l0.45-3.7c0.15-1.05,0.2-2.65,0.25-4.699
		c0.05-2.301,0.1-3.951,0.25-5.001l0.1-0.95c0.05-0.4,0.15-0.7,0.3-0.95c0.8-1.15,2.3-1.05,2.851,0.1c0.15,0.25,0.25,0.6,0.3,1.25
		c0.05,0.95,0.1,2.8,0.05,4.801c-0.05,2.199-0.35,5.8-0.95,10.75c-0.05,0.1-0.05,0.399-0.1,0.85c-0.1,1-0.25,2.2-0.4,3.2
		c-0.15,0.95-0.3,1.751-0.45,2.351c-0.2,0.8-0.45,1.3-0.85,1.65c-0.6,3.7-1.4,6.95-2.45,9.8c-0.25,0.751-1.1,1.101-1.85,0.851
		s-1.1-1.101-0.85-1.851C74.731,67.101,75.531,63.701,76.082,59.85z"/>
	<path fill="#222222" d="M90.781,31.399l0.05-0.15c-0.05,0.05-0.15,0.1-0.25,0.15c-2.25,1.2-3.55-0.7-3.3-3.45
		c0.2-2.4,1.6-4,4.25-2.65c1.399,0.75,2.2,1.9,2.399,3.25c0.15,1.35,0,2.55-0.399,3.75c-0.75,2.4-2.4,4.8-4,5.8
		c-0.65,0.4-1.55,0.2-1.95-0.5c-0.45-0.7-0.3-1.55,0.45-2C88.881,35.049,90.181,33.249,90.781,31.399z M90.181,27.999l0.101-0.1
		H90.23C90.23,27.949,90.23,27.949,90.181,27.999z"/>
	<path fill="#222222" d="M99.279,53.8v-1.15c0-0.8,0.601-1.5,1.4-1.5s1.5,0.6,1.5,1.4v1.35c0,1.05,0.05,1.5,0.15,2.3
		c0.05,0.4,0.1,0.751,0.2,1.051c0.55,1.85,2.35,2.1,3.2,0.35c1-2,0.649-6.75-0.5-7.9c-0.301-0.3-0.95-0.65-1.95-1
		c-2.851-1-4.351-2.601-4.15-7.551c0.149-2.55,0.2-4.45,1.55-5.85c1.45-1.4,3.5-1.55,4.9-0.6c1.351,0.75,2.351,2.15,2.601,3.7
		c0.05,0.45,0.05,1.2,0,2.25c-0.05,0.25-0.05,0.45-0.05,0.7c-0.051,0.25-0.051,0.5-0.051,0.7c-0.05,0.25-0.05,0.4-0.05,0.45
		c-0.05,0.8-0.75,1.399-1.55,1.351c-0.801-0.051-1.4-0.75-1.351-1.551c0-0.05,0-0.2,0.05-0.45c0-0.2,0-0.45,0.051-0.7
		c0-0.25,0-0.449,0.05-0.65c0.05-1.75,0.2-2.549-1.15-3.299c-1-0.6-1.7,0.15-1.95,1.7c-0.149,0.75-0.5,4.75,0.45,6.1
		c0.25,0.351,0.75,0.7,1.601,1c2.95,1.05,4.55,2.2,4.9,6.65c0.199,2.65-0.051,4.75-0.801,6.251c-0.95,1.949-2.75,3-4.6,2.75
		c-1.851-0.2-3.351-1.551-4.001-3.501c-0.25-0.85-0.399-2.1-0.399-2.899C99.279,54.85,99.279,54.35,99.279,53.8z"/>
	<path fill="#222222" d="M141.729,25.198c0.149,1.5,0.199,3.25,0.199,5.25c-0.05,0.8-0.1,3.8-0.1,5.05c0,2.2,0,4.75-0.05,7.701
		c1.65-1.5,2.6-3.701,2.9-6.651c0.05-0.8,0.8-1.35,1.6-1.3c0.8,0.05,1.351,0.8,1.3,1.6c-0.3,2.95-1.149,5.3-2.6,7.15
		c3.35,4.4,4.25,9.051,4.25,15.4c0,0.801-0.65,1.45-1.45,1.45s-1.45-0.649-1.45-1.45c0-5.75-0.8-9.7-3.45-13.351
		c-0.35,0.25-0.75,0.5-1.149,0.75c-0.101,6.751-0.15,11.501-0.15,14.251c0,0.801-0.65,1.45-1.45,1.45s-1.45-0.649-1.45-1.45
		c0-2.85,0.05-7.101,0.15-12.801c0.05-5.649,0.1-9.9,0.1-12.75c0-1.25,0.05-4.25,0.101-5.101c0-1.95-0.051-3.55-0.2-4.9
		c-0.05-0.8,0.5-1.55,1.3-1.601C140.929,23.848,141.679,24.398,141.729,25.198z"/>
	<path fill="#222222" d="M157.829,32.149l-0.5-0.15c-1.351,0.15-2.25-0.85-2.2-2.1c-0.05-0.25,0-0.5,0.15-0.75
		c0.05-0.25,0.149-0.45,0.3-0.65c0.95-1.75,2.45-2.3,3.6-1.9c1.2,0.4,1.9,1.65,1.7,3.05
		C160.679,30.999,159.629,32.399,157.829,32.149z M159.229,36.149c0.149,5.65,0.199,13.751,0.199,24.302
		c0,0.8-0.649,1.45-1.449,1.45c-0.801,0-1.45-0.65-1.45-1.45c0-10.551-0.051-18.651-0.2-24.202c0-0.8,0.6-1.5,1.4-1.5
		C158.529,34.749,159.229,35.349,159.229,36.149z"/>
	<path fill="#222222" d="M173.629,35.599v-0.8c0-0.45-0.05-1.4-0.1-2.75c-0.15-2.75-0.101-4.6,0.1-6.55c0.15-0.8,0.85-1.4,1.65-1.3
		c0.75,0.1,1.3,0.85,1.25,1.6c-0.2,1.8-0.25,3.45-0.101,6.05c0.051,1.3,0.101,2.3,0.101,2.95c0.149,9.75,0.3,18.051,0.55,24.801
		c0,0.801-0.6,1.5-1.4,1.5c-0.8,0-1.45-0.55-1.5-1.35c-1.149,1.4-2.85,1.9-5,0.9c-1.55-0.7-2.601-1.65-3.2-2.851
		c-0.45-1-0.75-3.2-0.9-5.801c-0.25-6,0.4-12.8,2.601-15.75C169.329,34.099,171.579,34.149,173.629,35.599z M171.779,37.849
		c-0.801-0.55-1.2-0.55-1.801,0.2c-1.55,2.05-2.25,8.2-2,13.801c0.05,1.25,0.15,2.3,0.25,3.15c0.25,1.6,0.351,2.2,2.15,3.05
		c0.45,0.2,0.85,0.25,1.1,0.2c0.15-0.05,0.351-0.15,0.5-0.4c0.4-0.55,0.7-1.55,0.95-3.05c0.95-5.2,0.7-13.401-1.1-16.851
		C171.829,37.899,171.829,37.899,171.779,37.849z"/>
</g>
</svg>
